<svg width="90" height="90" viewBox="0 0 90 90" fill="none" xmlns="http://www.w3.org/2000/svg">
<path d="M88.0857 45C88.0857 68.7956 68.7956 88.0857 45 88.0857C21.2044 88.0857 1.91429 68.7956 1.91429 45C1.91429 21.2044 21.2044 1.91429 45 1.91429C68.7956 1.91429 88.0857 21.2044 88.0857 45Z" stroke="#9580FF" stroke-width="3.82857"/>
<path d="M65.9389 33.8572H60.1227C58.9915 33.8604 57.9323 34.2664 57.2793 34.947C56.6262 35.6276 56.46 36.4988 56.8331 37.2857C55.4598 37.3366 54.3649 38.1497 54.3066 39.162C54.2539 40.3628 55.3367 41.4305 56.9145 41.7334C57.8164 41.8451 58.608 42.2398 59.0839 42.8151C59.6784 43.8704 60.6979 44.7658 62.0048 45.3806C61.2045 47.5114 59.7039 50.3974 58.6908 53.88C57.8753 53.5789 56.9533 53.4712 56.0514 53.5714C55.42 53.5728 54.8068 53.7273 54.3066 54.0111C53.8063 53.7273 53.1931 53.5728 52.5617 53.5714C51.1216 53.5714 50.5272 53.5234 49.6536 54.0111C49.1533 53.7273 48.5402 53.5728 47.9088 53.5714C46.6001 53.5714 45.7952 53.4917 44.839 54.1097C43.8737 53.3503 42.7503 52.7091 41.511 52.2103V47.4857C43.2828 46.0032 44.6148 44.2644 45.4218 42.3806C49.1386 42.3814 51.3985 39 49.6536 36.0463V34.7143C49.6649 31.5564 47.6976 28.5715 44.3225 26.6254C46.4245 24.7046 43.3419 22.1023 38.9496 22.842C37.5893 21.8486 35.5371 21.5784 33.7941 22.1632C32.6389 20.3984 30.2112 19.2793 27.5522 19.2857C24.3693 19.28 21.5863 20.8654 20.7922 23.1366C19.9982 25.4078 21.3953 27.7867 24.1858 28.9149C22.5967 30.6226 21.743 32.6436 21.7361 34.7143V36.0472C20.1894 39 21.6198 42.9454 25.9679 42.3814C26.7779 44.264 28.1096 46.0021 29.8787 47.4857V51.7877C24.9404 53.3468 21.7378 56.9241 21.7361 60.8829C21.7361 64.5026 23.2111 66.558 25.0187 69.6746C25.385 70.3051 26.226 70.7141 27.1567 70.7143H45.0007C46.928 70.7143 48.4904 69.563 48.4904 68.1428V67.2857H64.7756C67.3454 67.2857 69.4286 65.7507 69.4286 63.8571V36.4286C69.4286 35.0084 67.8662 33.8572 65.9389 33.8572ZM56.0514 55.2857H57.2146C57.5358 55.2857 57.7962 55.4776 57.7962 55.7143V58.7143C57.7962 59.1877 57.2755 59.5714 56.633 59.5714C55.9906 59.5714 55.4698 59.1877 55.4698 58.7143V55.7143C55.4698 55.4776 55.7302 55.2857 56.0514 55.2857ZM51.3985 55.2857H52.5617C52.8829 55.2857 53.1433 55.4776 53.1433 55.7143V58.7143C53.1433 59.1877 52.6225 59.5714 51.9801 59.5714C51.3377 59.5714 50.8169 59.1877 50.8169 58.7143V55.7143C50.8169 55.4776 51.0773 55.2857 51.3985 55.2857ZM46.1639 55.7143C46.1639 55.4776 46.4243 55.2857 46.7456 55.2857H47.9088C48.23 55.2857 48.4904 55.4776 48.4904 55.7143V58.7143C48.4904 59.1877 47.9696 59.5714 47.3272 59.5714C46.6847 59.5714 46.1639 59.1877 46.1639 58.7143V55.7143ZM42.6742 25.2857C42.6742 25.4889 42.3613 25.7306 41.8786 25.902C41.3474 26.0727 40.7693 26.149 40.1907 26.1249C40.4019 25.5736 40.4019 24.9901 40.1907 24.4389C40.2454 24.4389 40.2954 24.4286 40.3513 24.4286C41.7437 24.4286 42.6742 24.9429 42.6742 25.2857ZM38.0213 25.2857C38.0213 26.2325 36.9797 27 35.6949 27C34.41 27 33.3684 26.2325 33.3684 25.2857C33.3684 24.339 34.41 23.5714 35.6949 23.5714C36.9797 23.5714 38.0213 24.339 38.0213 25.2857ZM29.5076 25.9054C29.0272 25.7306 28.7155 25.4872 28.7155 25.2857C28.7155 24.9429 29.6461 24.4286 31.0419 24.4286C31.0978 24.4286 31.1478 24.4372 31.2025 24.4389C30.9913 24.9898 30.9913 25.5731 31.2025 26.124C30.622 26.1506 30.0413 26.0757 29.5076 25.9054ZM27.5522 21C29.2332 20.9959 30.7835 21.6672 31.5968 22.7512C27.4627 22.4872 25.1525 24.8812 27.073 26.6314C26.5798 26.9179 26.1134 27.2286 25.6771 27.5614C23.6719 26.9045 22.5622 25.3044 23.0144 23.7221C23.4666 22.1397 25.3577 21.0053 27.5522 21ZM29.1633 27.642C30.2235 27.8945 31.3583 27.9242 32.4401 27.7277C34.2445 29.0433 37.1498 29.0433 38.9542 27.7277C40.038 27.9253 41.1754 27.8935 42.2357 27.636C45.4924 29.2435 47.4119 31.9637 47.3272 34.8514C46.6981 34.7015 46.0276 34.672 45.3788 34.7657C44.3807 34.1357 39.3939 33 36.9674 31.6114C36.2094 31.1897 35.1627 31.1922 34.4083 31.6174C31.99 33.0026 27.0451 34.116 26.0086 34.7657C25.3598 34.6721 24.6893 34.7016 24.0602 34.8514C23.9782 31.9637 25.9026 29.245 29.1633 27.642ZM27.7849 41.0237C27.6255 40.6749 27.1817 40.4399 26.6821 40.44C26.1308 40.44 25.9935 40.7143 25.2281 40.7143C23.7945 40.5802 22.7645 39.6315 22.9016 38.5714C22.7644 37.512 23.7931 36.5635 25.2258 36.4286C25.9982 36.4286 26.2273 36.7903 26.9439 36.5477C27.2276 36.4514 27.4469 36.275 27.5522 36.0583C28.5643 35.5757 33.102 34.4889 35.6949 33.0583C38.34 34.5154 42.8336 35.5826 43.8375 36.0583C43.9431 36.2752 44.1628 36.4516 44.447 36.5477C45.1636 36.7903 45.395 36.4286 46.1651 36.4286C47.5987 36.5627 48.6287 37.5114 48.4916 38.5714C48.6287 39.6318 47.5992 40.3063 46.1651 40.44C45.3078 40.44 45.0589 40.2772 44.2888 40.4983C43.2512 40.7957 43.7351 41.6263 41.4447 44.7163C40.0337 46.6106 38.0993 47.5714 35.6949 47.5714C33.2905 47.5714 31.356 46.6106 29.9462 44.718C29.0867 43.5333 28.3637 42.2976 27.7849 41.0237ZM32.2052 48.7191C34.4183 49.476 36.9715 49.476 39.1845 48.7191V51.4749C36.9293 50.9341 34.5174 50.8538 32.2052 51.2426V48.7191ZM46.1639 68.1428C46.1639 68.6162 45.6431 69 45.0007 69H27.1567C25.3933 65.958 24.0625 64.1366 24.0625 60.8829C24.0558 57.4013 27.0552 54.3021 31.5245 53.1727C35.9939 52.0433 40.9432 53.1338 43.8375 55.8857V56.3666C42.1735 55.4977 40.1231 55.1281 38.1027 55.3329C33.8246 55.7296 30.7079 58.515 30.9948 61.6852C31.2818 64.8554 34.8728 67.3111 39.1845 67.2857H46.1639V68.1428ZM67.1021 63.8571C67.1021 64.8039 66.0605 65.5714 64.7756 65.5714H39.1845C36.5023 65.5698 34.1694 64.2167 33.5371 62.2959C32.9049 60.3751 34.1373 58.3848 36.5206 57.4778C38.9038 56.5709 41.8197 56.9825 43.5792 58.4743C43.6537 58.5369 43.7549 58.5857 43.8375 58.6457C43.7988 59.6726 44.5955 60.6174 45.8621 61.0467C47.1286 61.476 48.6206 61.307 49.6536 60.6171C50.9687 61.5086 52.9915 61.5086 54.3066 60.6171C55.3435 61.3231 56.8632 61.486 58.1301 61.0269C58.4607 61.2746 58.9617 61.3508 59.3984 61.2196C59.8351 61.0885 60.1212 60.7761 60.1227 60.4286C60.1227 60.1714 60.1308 59.04 60.146 58.7451C60.4089 53.3537 63.6054 48.0137 64.5139 45.0609C64.6509 44.6154 64.2897 44.169 63.6927 44.046C62.7062 43.842 62.0199 43.2994 61.165 42.048C60.3983 41.0289 59.0643 40.3085 57.5147 40.0766C56.5667 39.888 56.3876 39 56.9587 39H62.4492C63.0916 39 63.6124 38.6163 63.6124 38.1429C63.6124 37.6695 63.0916 37.2857 62.4492 37.2857H60.1227C59.4803 37.2857 58.9595 36.902 58.9595 36.4286C58.9595 35.9552 59.4803 35.5714 60.1227 35.5714H65.9389C66.5813 35.5714 67.1021 35.9552 67.1021 36.4286V63.8571Z" fill="#9580FF"/>
</svg>
